<svg width="217" height="51" viewBox="0 0 217 51" fill="none" xmlns="http://www.w3.org/2000/svg">
<path d="M15 36L29 27L15 18V36ZM20 47C17.2333 47 14.6333 46.475 12.2 45.425C9.76667 44.375 7.65 42.95 5.85 41.15C4.05 39.35 2.625 37.2333 1.575 34.8C0.525 32.3667 0 29.7667 0 27C0 24.2333 0.525 21.6333 1.575 19.2C2.625 16.7667 4.05 14.65 5.85 12.85C7.65 11.05 9.76667 9.625 12.2 8.575C14.6333 7.525 17.2333 7 20 7C22.7667 7 25.3667 7.525 27.8 8.575C30.2333 9.625 32.35 11.05 34.15 12.85C35.95 14.65 37.375 16.7667 38.425 19.2C39.475 21.6333 40 24.2333 40 27C40 29.7667 39.475 32.3667 38.425 34.8C37.375 37.2333 35.95 39.35 34.15 41.15C32.35 42.95 30.2333 44.375 27.8 45.425C25.3667 46.475 22.7667 47 20 47ZM20 43C24.4667 43 28.25 41.45 31.35 38.35C34.45 35.25 36 31.4667 36 27C36 22.5333 34.45 18.75 31.35 15.65C28.25 12.55 24.4667 11 20 11C15.5333 11 11.75 12.55 8.65 15.65C5.55 18.75 4 22.5333 4 27C4 31.4667 5.55 35.25 8.65 38.35C11.75 41.45 15.5333 43 20 43Z" fill="#E8EAED"/>
<path d="M63.9716 39L54.8239 26.9261H53.233V39H46.2017V9.90909H53.233V21.2017H54.3551L63.3608 9.90909H72.1534L60.946 23.6449L72.7358 39H63.9716ZM81.88 30.0085L88.8544 17.1818H95.5305V39H88.9538V26.1307L81.9936 39H75.3033V17.1818H81.88V30.0085ZM115.335 25.3778V30.6761H104.142V25.3778H115.335ZM106.528 17.1818V39H99.9517V17.1818H106.528ZM119.526 17.1818V39H112.991V17.1818H119.526ZM133.925 39.4119C131.634 39.4119 129.664 38.9432 128.016 38.0057C126.378 37.0587 125.114 35.7424 124.224 34.0568C123.343 32.3617 122.903 30.3968 122.903 28.1619C122.903 25.9176 123.343 23.9527 124.224 22.267C125.114 20.572 126.378 19.2557 128.016 18.3182C129.664 17.3712 131.634 16.8977 133.925 16.8977C136.217 16.8977 138.182 17.3712 139.82 18.3182C141.468 19.2557 142.732 20.572 143.613 22.267C144.503 23.9527 144.948 25.9176 144.948 28.1619C144.948 30.3968 144.503 32.3617 143.613 34.0568C142.732 35.7424 141.468 37.0587 139.82 38.0057C138.182 38.9432 136.217 39.4119 133.925 39.4119ZM133.968 34.1705C134.801 34.1705 135.507 33.9148 136.085 33.4034C136.662 32.892 137.103 32.1818 137.406 31.2727C137.718 30.3636 137.874 29.3125 137.874 28.1193C137.874 26.9072 137.718 25.8466 137.406 24.9375C137.103 24.0284 136.662 23.3182 136.085 22.8068C135.507 22.2955 134.801 22.0398 133.968 22.0398C133.106 22.0398 132.377 22.2955 131.781 22.8068C131.193 23.3182 130.744 24.0284 130.431 24.9375C130.128 25.8466 129.977 26.9072 129.977 28.1193C129.977 29.3125 130.128 30.3636 130.431 31.2727C130.744 32.1818 131.193 32.892 131.781 33.4034C132.377 33.9148 133.106 34.1705 133.968 34.1705ZM168.379 9.90909V15.6193H155.538V39H148.506V9.90909H168.379ZM176.138 30.0085L183.112 17.1818H189.788V39H183.212V26.1307L176.251 39H169.561V17.1818H176.138V30.0085ZM194.21 39V17.1818H201.156V25.3068H202.69L207.988 17.1818H216.028L208.684 28.1051L216.099 39H207.96L203.173 31.7557H201.156V39H194.21Z" fill="white"/>
<path d="M52.1541 41.7273V49H51.4936V42.3239H47.5767V49H46.9126V41.7273H52.1541ZM58.8374 49.1136C58.3662 49.1136 57.9496 48.9941 57.5874 48.755C57.2275 48.5159 56.9458 48.1856 56.7422 47.7642C56.5386 47.3404 56.4368 46.8516 56.4368 46.2976C56.4368 45.7389 56.5386 45.2476 56.7422 44.8239C56.9458 44.3977 57.2275 44.0663 57.5874 43.8295C57.9496 43.5904 58.3662 43.4709 58.8374 43.4709C59.3085 43.4709 59.724 43.5904 60.0838 43.8295C60.4437 44.0687 60.7254 44.4001 60.929 44.8239C61.1349 45.2476 61.2379 45.7389 61.2379 46.2976C61.2379 46.8516 61.1361 47.3404 60.9325 47.7642C60.7289 48.1856 60.446 48.5159 60.0838 48.755C59.724 48.9941 59.3085 49.1136 58.8374 49.1136ZM58.8374 48.5348C59.2161 48.5348 59.5369 48.433 59.7997 48.2294C60.0625 48.0258 60.2614 47.7547 60.3963 47.4162C60.5336 47.0777 60.6023 46.7048 60.6023 46.2976C60.6023 45.8904 60.5336 45.5163 60.3963 45.1754C60.2614 44.8345 60.0625 44.5611 59.7997 44.3551C59.5369 44.1491 59.2161 44.0462 58.8374 44.0462C58.4609 44.0462 58.1402 44.1491 57.875 44.3551C57.6122 44.5611 57.4122 44.8345 57.2749 45.1754C57.1399 45.5163 57.0724 45.8904 57.0724 46.2976C57.0724 46.7048 57.1399 47.0777 57.2749 47.4162C57.4122 47.7547 57.6122 48.0258 57.875 48.2294C58.1378 48.433 58.4586 48.5348 58.8374 48.5348ZM68.2896 48.1158L70.3386 43.5455H70.9529L68.5417 49H68.0375L65.6547 43.5455H66.2583L68.2896 48.1158ZM66.0701 43.5455V49H65.438V43.5455H66.0701ZM70.5091 49V43.5455H71.1412V49H70.5091ZM77.7534 49.1136C77.2823 49.1136 76.8656 48.9941 76.5034 48.755C76.1435 48.5159 75.8618 48.1856 75.6582 47.7642C75.4546 47.3404 75.3528 46.8516 75.3528 46.2976C75.3528 45.7389 75.4546 45.2476 75.6582 44.8239C75.8618 44.3977 76.1435 44.0663 76.5034 43.8295C76.8656 43.5904 77.2823 43.4709 77.7534 43.4709C78.2245 43.4709 78.64 43.5904 78.9998 43.8295C79.3597 44.0687 79.6414 44.4001 79.845 44.8239C80.051 45.2476 80.1539 45.7389 80.1539 46.2976C80.1539 46.8516 80.0521 47.3404 79.8485 47.7642C79.6449 48.1856 79.362 48.5159 78.9998 48.755C78.64 48.9941 78.2245 49.1136 77.7534 49.1136ZM77.7534 48.5348C78.1322 48.5348 78.4529 48.433 78.7157 48.2294C78.9785 48.0258 79.1774 47.7547 79.3123 47.4162C79.4496 47.0777 79.5183 46.7048 79.5183 46.2976C79.5183 45.8904 79.4496 45.5163 79.3123 45.1754C79.1774 44.8345 78.9785 44.5611 78.7157 44.3551C78.4529 44.1491 78.1322 44.0462 77.7534 44.0462C77.377 44.0462 77.0562 44.1491 76.791 44.3551C76.5282 44.5611 76.3282 44.8345 76.1909 45.1754C76.0559 45.5163 75.9885 45.8904 75.9885 46.2976C75.9885 46.7048 76.0559 47.0777 76.1909 47.4162C76.3282 47.7547 76.5282 48.0258 76.791 48.2294C77.0538 48.433 77.3746 48.5348 77.7534 48.5348ZM84.0131 49L86.4208 46.2443L84.0451 43.5455H84.8157L86.9073 45.9709H87.2731V43.5455H87.9087V45.9709H88.2674L90.359 43.5455H91.1296L88.761 46.2443L91.1616 49H90.3803L88.2567 46.5675H87.9087V49H87.2731V46.5675H86.9251L84.7944 49H84.0131ZM97.5066 49.1136C96.9976 49.1136 96.5572 48.9953 96.1855 48.7585C95.8139 48.5194 95.5262 48.1892 95.3226 47.7678C95.1214 47.344 95.0208 46.8563 95.0208 46.3047C95.0208 45.7554 95.1214 45.2678 95.3226 44.8416C95.5262 44.4131 95.8068 44.0781 96.1642 43.8366C96.5241 43.5928 96.9396 43.4709 97.4107 43.4709C97.7066 43.4709 97.9919 43.5253 98.2665 43.6342C98.5411 43.7408 98.7873 43.9053 99.0051 44.1278C99.2253 44.348 99.3993 44.6262 99.5272 44.9624C99.655 45.2962 99.7189 45.6915 99.7189 46.1484V46.4609H95.4576V45.9034H99.0726C99.0726 45.553 99.0016 45.2382 98.8596 44.9588C98.7199 44.6771 98.5246 44.4545 98.2736 44.2912C98.025 44.1278 97.7374 44.0462 97.4107 44.0462C97.065 44.0462 96.7608 44.1385 96.498 44.3232C96.2353 44.5078 96.0293 44.7517 95.8801 45.0547C95.7334 45.3577 95.6588 45.6892 95.6564 46.049V46.3828C95.6564 46.8161 95.731 47.1948 95.8801 47.5192C96.0317 47.8411 96.2459 48.0909 96.5229 48.2685C96.7999 48.446 97.1278 48.5348 97.5066 48.5348C97.7646 48.5348 97.9907 48.4946 98.1848 48.4141C98.3813 48.3336 98.5459 48.2259 98.6784 48.0909C98.8134 47.9536 98.9152 47.8033 98.9838 47.6399L99.584 47.8352C99.5011 48.0649 99.365 48.2768 99.1756 48.4709C98.9886 48.665 98.7542 48.8213 98.4725 48.9396C98.1931 49.0556 97.8712 49.1136 97.5066 49.1136ZM103.591 44.142V43.5455H107.852V44.142H106.048V49H105.416V44.142H103.591ZM121.308 45.978V46.5746H118.101V45.978H121.308ZM118.258 43.5455V49H117.626V43.5455H118.258ZM121.773 43.5455V49H121.141V43.5455H121.773ZM127.792 49.1243C127.462 49.1243 127.162 49.0604 126.89 48.9325C126.617 48.8023 126.401 48.6153 126.24 48.3714C126.079 48.1252 125.998 47.8269 125.998 47.4766C125.998 47.2067 126.049 46.9794 126.151 46.7947C126.253 46.6101 126.397 46.4586 126.584 46.3402C126.771 46.2218 126.993 46.1283 127.248 46.0597C127.504 45.991 127.786 45.9377 128.093 45.8999C128.399 45.862 128.657 45.8288 128.868 45.8004C129.081 45.772 129.243 45.727 129.354 45.6655C129.465 45.6039 129.521 45.5045 129.521 45.3672V45.2393C129.521 44.8677 129.41 44.5753 129.187 44.3622C128.967 44.1468 128.65 44.0391 128.235 44.0391C127.842 44.0391 127.522 44.1255 127.273 44.2983C127.027 44.4711 126.854 44.6747 126.755 44.9091L126.154 44.6925C126.278 44.3942 126.448 44.1562 126.666 43.9787C126.884 43.7988 127.127 43.6697 127.397 43.5916C127.667 43.5111 127.941 43.4709 128.218 43.4709C128.426 43.4709 128.643 43.4981 128.868 43.5526C129.095 43.607 129.306 43.7017 129.5 43.8366C129.694 43.9692 129.851 44.1551 129.972 44.3942C130.093 44.6309 130.153 44.9316 130.153 45.2962V49H129.521V48.1371H129.482C129.406 48.2981 129.294 48.4543 129.145 48.6058C128.995 48.7573 128.808 48.8816 128.583 48.9787C128.359 49.0758 128.095 49.1243 127.792 49.1243ZM127.877 48.5455C128.213 48.5455 128.504 48.4709 128.75 48.3217C128.997 48.1726 129.186 47.9749 129.319 47.7287C129.453 47.4801 129.521 47.2067 129.521 46.9084V46.12C129.474 46.165 129.394 46.2053 129.283 46.2408C129.174 46.2763 129.047 46.3082 128.903 46.3366C128.761 46.3627 128.619 46.3852 128.477 46.4041C128.335 46.4231 128.207 46.4396 128.093 46.4538C127.786 46.4917 127.523 46.5509 127.305 46.6314C127.087 46.7119 126.92 46.8232 126.804 46.9652C126.688 47.1049 126.63 47.2848 126.63 47.505C126.63 47.8364 126.749 48.0933 126.985 48.2756C127.222 48.4555 127.519 48.5455 127.877 48.5455ZM135.279 48.1016L138.159 43.5455H138.915V49H138.283V44.4439L135.414 49H134.647V43.5455H135.279V48.1016ZM137.435 41.7273H138.031C138.031 42.0658 137.919 42.3404 137.694 42.5511C137.471 42.7618 137.167 42.8672 136.781 42.8672C136.4 42.8672 136.098 42.7618 135.876 42.5511C135.653 42.3404 135.542 42.0658 135.542 41.7273H136.138C136.138 41.9119 136.188 42.0682 136.288 42.196C136.389 42.3215 136.554 42.3842 136.781 42.3842C137.009 42.3842 137.174 42.3215 137.278 42.196C137.383 42.0682 137.435 41.9119 137.435 41.7273ZM143.063 44.142V43.5455H147.325V44.142H145.521V49H144.888V44.142H143.063ZM152.105 48.1016L154.985 43.5455H155.742V49H155.11V44.4439L152.24 49H151.473V43.5455H152.105V48.1016ZM168.153 50.8608V41.7273H168.789V50.8608H168.153ZM168.153 49.1136C167.776 49.1136 167.431 49.045 167.116 48.9077C166.801 48.7704 166.528 48.5762 166.296 48.3253C166.066 48.072 165.887 47.7737 165.759 47.4304C165.632 47.0871 165.568 46.7107 165.568 46.3011C165.568 45.8868 165.632 45.5069 165.759 45.1612C165.887 44.8156 166.066 44.5173 166.296 44.2663C166.528 44.0154 166.801 43.8213 167.116 43.6839C167.431 43.5443 167.776 43.4744 168.153 43.4744H168.341V49.1136H168.153ZM168.153 48.5348H168.256V44.0533H168.153C167.847 44.0533 167.574 44.1136 167.333 44.2344C167.091 44.3527 166.886 44.5161 166.718 44.7244C166.55 44.9328 166.422 45.1719 166.335 45.4418C166.247 45.7116 166.203 45.9981 166.203 46.3011C166.203 46.7036 166.28 47.0741 166.434 47.4126C166.59 47.7512 166.814 48.0234 167.105 48.2294C167.396 48.4354 167.746 48.5372 168.153 48.5348ZM168.789 49.1136H168.597V43.4744H168.789C169.163 43.4744 169.507 43.5443 169.822 43.6839C170.139 43.8213 170.413 44.0154 170.642 44.2663C170.874 44.5173 171.054 44.8156 171.182 45.1612C171.31 45.5069 171.374 45.8868 171.374 46.3011C171.374 46.7107 171.31 47.0871 171.182 47.4304C171.054 47.7737 170.874 48.072 170.642 48.3253C170.413 48.5762 170.139 48.7704 169.822 48.9077C169.507 49.045 169.163 49.1136 168.789 49.1136ZM168.789 48.5348C169.094 48.5348 169.366 48.4768 169.605 48.3608C169.847 48.2424 170.052 48.0791 170.22 47.8707C170.39 47.6624 170.519 47.4245 170.607 47.157C170.694 46.8871 170.738 46.6018 170.738 46.3011C170.738 45.8987 170.66 45.527 170.504 45.1861C170.35 44.8452 170.127 44.5717 169.836 44.3658C169.545 44.1574 169.196 44.0533 168.789 44.0533H168.682V48.5348H168.789ZM176.207 48.1016L179.087 43.5455H179.843V49H179.211V44.4439L176.342 49H175.575V43.5455H176.207V48.1016ZM183.789 49V48.4034H183.959C184.153 48.4034 184.309 48.3679 184.428 48.2969C184.548 48.2235 184.642 48.1004 184.708 47.9276C184.775 47.7547 184.824 47.5192 184.857 47.2209C184.891 46.9226 184.917 46.5485 184.936 46.0987L185.053 43.5455H188.519V49H187.883V44.142H185.653L185.55 46.3118C185.529 46.7545 185.493 47.1439 185.443 47.4801C185.396 47.8163 185.318 48.0968 185.209 48.3217C185.102 48.5466 184.953 48.7159 184.762 48.8295C184.572 48.9432 184.324 49 184.016 49H183.789ZM193.532 45.6513H195.126C195.74 45.6513 196.213 45.8004 196.547 46.0987C196.881 46.397 197.048 46.8007 197.048 47.3097C197.048 47.6482 196.973 47.9441 196.824 48.1974C196.675 48.4508 196.457 48.6484 196.17 48.7905C195.884 48.9302 195.536 49 195.126 49H193.006V43.5455H193.638V48.4034H195.126C195.512 48.4034 195.824 48.3111 196.06 48.1264C196.297 47.9418 196.415 47.679 196.415 47.3381C196.415 46.9901 196.297 46.7214 196.06 46.532C195.824 46.3426 195.512 46.2479 195.126 46.2479H193.532V45.6513ZM204.1 48.1158L206.149 43.5455H206.763L204.352 49H203.848L201.465 43.5455H202.069L204.1 48.1158ZM201.881 43.5455V49H201.249V43.5455H201.881ZM206.32 49V43.5455H206.952V49H206.32Z" fill="white"/>
</svg>
