<svg width="24" height="6" viewBox="0 0 24 6" fill="none" xmlns="http://www.w3.org/2000/svg">
<path d="M3 6C2.175 6 1.46875 5.70625 0.88125 5.11875C0.29375 4.53125 0 3.825 0 3C0 2.175 0.29375 1.46875 0.88125 0.88125C1.46875 0.29375 2.175 0 3 0C3.825 0 4.53125 0.29375 5.11875 0.88125C5.70625 1.46875 6 2.175 6 3C6 3.825 5.70625 4.53125 5.11875 5.11875C4.53125 5.70625 3.825 6 3 6ZM12 6C11.175 6 10.4688 5.70625 9.88125 5.11875C9.29375 4.53125 9 3.825 9 3C9 2.175 9.29375 1.46875 9.88125 0.88125C10.4688 0.29375 11.175 0 12 0C12.825 0 13.5313 0.29375 14.1188 0.88125C14.7063 1.46875 15 2.175 15 3C15 3.825 14.7063 4.53125 14.1188 5.11875C13.5313 5.70625 12.825 6 12 6ZM21 6C20.175 6 19.4688 5.70625 18.8813 5.11875C18.2938 4.53125 18 3.825 18 3C18 2.175 18.2938 1.46875 18.8813 0.88125C19.4688 0.29375 20.175 0 21 0C21.825 0 22.5313 0.29375 23.1188 0.88125C23.7063 1.46875 24 2.175 24 3C24 3.825 23.7063 4.53125 23.1188 5.11875C22.5313 5.70625 21.825 6 21 6Z" fill="#373737"/>
</svg>
