<svg width="15" height="19" viewBox="0 0 15 19" fill="none" xmlns="http://www.w3.org/2000/svg">
<path d="M6.625 15.625H8.375V11.9719L9.775 13.3719L11 12.125L7.5 8.625L4 12.125L5.24687 13.35L6.625 11.9719V15.625ZM2.25 18.25C1.76875 18.25 1.35677 18.0786 1.01406 17.7359C0.671354 17.3932 0.5 16.9812 0.5 16.5V2.5C0.5 2.01875 0.671354 1.60677 1.01406 1.26406C1.35677 0.921354 1.76875 0.75 2.25 0.75H9.25L14.5 6V16.5C14.5 16.9812 14.3286 17.3932 13.9859 17.7359C13.6432 18.0786 13.2312 18.25 12.75 18.25H2.25ZM8.375 6.875V2.5H2.25V16.5H12.75V6.875H8.375Z" fill="#373737"/>
</svg>
